<?xml version="1.0" encoding="UTF-8"?>
<svg width="1536px" height="1615px" viewBox="0 0 1536 1615" version="1.1" xmlns="http://www.w3.org/2000/svg" xmlns:xlink="http://www.w3.org/1999/xlink">
    <!-- Generator: Sketch 54.1 (76490) - https://sketchapp.com -->
    <title>Group 30</title>
    <desc>Created with Sketch.</desc>
    <g id="Page-1" stroke="none" stroke-width="1" fill="none" fill-rule="evenodd">
        <g id="Group-30">
            <g id="Group-20" fill="#00020A">
                <rect id="Rectangle" x="0" y="0" width="1536" height="1615" rx="246"></rect>
            </g>
            <g id="pawprint" transform="translate(142.000000, 188.000000)" fill="#FFFFFF" fill-rule="nonzero">
                <g id="XMLID_441_" transform="translate(0.000000, 412.000000)">
                    <path d="M494.809082,826.244852 C437.241213,826.244852 379.683115,804.864939 335.779186,762.063594 C315.010875,741.816909 298.52522,718.241366 286.779068,691.98906 C256.392497,624.063753 202.237559,569.925241 134.291641,539.547886 C108.03137,527.80774 84.4486741,511.327085 64.195846,490.562632 C-21.6258184,402.573812 -21.3619697,259.655174 64.7846194,171.9692 C99.8325171,136.294492 144.435157,113.571313 193.767528,106.251734 C221.833208,102.087608 246.788894,89.5756944 265.935024,70.0714694 L267.420394,68.5718958 C320.813103,15.1953822 396.967645,-8.17012259 481.851181,2.78360259 C563.20452,13.2830596 643.399855,54.4480624 707.668993,118.697705 C771.93813,182.947348 813.118066,263.118359 823.618266,344.447021 C834.575315,429.307252 811.205163,505.436252 757.810011,558.815208 L756.461451,560.15359 C736.895119,579.381835 724.369636,604.356816 720.223792,632.396887 C712.926422,681.748487 690.201234,726.366905 654.510816,761.431037 C610.543368,804.628036 552.670117,826.244852 494.809082,826.244852 L494.809082,826.244852 Z M442.215248,73.2171545 C394.600337,73.2171545 351.079965,88.5572544 319.244669,120.382894 L318.260123,121.376911 C287.829577,152.377052 248.506354,172.203661 204.524247,178.729492 C171.093644,183.689808 140.853655,199.105619 117.07063,223.311276 C58.6354797,282.78866 58.4546945,379.73096 116.667528,439.411056 C130.436519,453.527562 146.433566,464.715748 164.211591,472.665442 C248.635835,510.411222 315.924574,577.67955 353.681806,662.078186 C361.633912,679.853261 372.825493,695.845455 386.943839,709.607828 C446.659144,767.8201 543.645516,767.624716 603.140947,709.17554 C627.361277,685.382633 642.776879,655.129836 647.721599,621.687393 C654.220094,577.740607 674.047832,538.402447 705.064709,507.924958 L705.985736,507.011537 C742.951423,470.057063 758.911824,415.657225 750.927959,353.832788 C742.487244,288.476782 708.719501,223.372334 655.842274,170.511146 C592.198556,106.881847 512.728804,73.2171545 442.215248,73.2171545 L442.215248,73.2171545 Z" id="XMLID_273_"></path>
                </g>
                <g id="XMLID_481_" transform="translate(587.000000, 0.000000)">
                    <path d="M151.4883,371.857859 C109.172845,371.857859 71.2767646,356.929323 43.1390167,328.791575 C10.2981928,295.953197 -4.54719004,249.815116 1.33471206,198.876132 C6.84975957,151.109217 30.2893229,104.401289 67.3367462,67.3538661 C104.381724,30.3088885 151.089652,6.86932515 198.856566,1.35183194 C249.797996,-4.52273307 295.931185,10.3202041 328.772009,43.1561366 C361.612833,75.9969605 376.458216,122.135041 370.57876,173.074025 C365.063712,220.84094 341.624149,267.548868 304.576725,304.593845 C267.531748,341.641269 220.821374,365.080832 173.05446,370.59588 C165.758944,371.439645 158.561257,371.857859 151.4883,371.857859 L151.4883,371.857859 Z M220.092556,73.4852293 C215.91286,73.4852293 211.635335,73.7346905 207.272211,74.2385041 C175.87924,77.8630276 144.606108,93.843214 119.217324,119.231998 C93.8260941,144.623228 77.8459077,175.89636 74.2213842,207.289331 C70.9612697,235.512678 78.3497214,260.236233 95.0195944,276.908551 C111.691913,293.58087 136.422805,300.96443 164.638815,297.709207 C196.031786,294.084684 227.304918,278.104497 252.696148,252.713268 C278.087378,227.322038 294.067564,196.051352 297.689642,164.658381 C300.949756,136.435033 293.561305,111.711479 276.888986,95.03916 C262.796878,80.9446062 242.945152,73.4852293 220.092556,73.4852293 L220.092556,73.4852293 Z" id="XMLID_270_"></path>
                </g>
                <g id="XMLID_483_" transform="translate(95.000000, 18.000000)">
                    <path d="M151.75552,372.151982 C109.437619,372.151982 71.5439843,357.223445 43.4062364,329.088143 C10.5654125,296.247319 -4.28241605,250.111684 1.59948606,199.1727 C7.11453357,151.405785 30.5540969,104.697858 67.6015202,67.6504342 C104.646498,30.6054565 151.356871,7.16589321 199.12134,1.64840001 C250.067662,-4.2310564 296.198405,10.6167722 329.036783,43.4527047 C361.877607,76.2935286 376.725436,122.431609 370.843534,173.370593 C365.328486,221.137508 341.888923,267.845436 304.841499,304.890413 C267.796522,341.937837 221.086148,365.3774 173.319234,370.892448 C166.02861,371.736213 158.828477,372.151982 151.75552,372.151982 L151.75552,372.151982 Z M220.359776,73.7817974 C216.180079,73.7817974 211.902555,74.0312585 207.539431,74.5350722 C176.14646,78.1595956 144.873328,94.1397821 119.484544,119.528566 C94.0908681,144.922242 78.1131274,176.195374 74.4861582,207.588345 C71.2284894,235.811692 78.6144954,260.535246 95.2868141,277.207565 C111.956687,293.877438 136.67535,301.270781 164.906035,298.005775 C196.299006,294.381252 227.572138,278.401066 252.963367,253.009836 C278.354597,227.618606 294.334784,196.345474 297.956861,164.954949 C301.216976,136.731601 293.828524,112.008047 277.158651,95.3357281 C263.064097,81.2411743 243.212372,73.7817974 220.359776,73.7817974 Z" id="XMLID_267_"></path>
                </g>
                <g id="XMLID_84_" transform="translate(878.000000, 291.000000)">
                    <path d="M151.989668,372.359227 C109.674213,372.359227 71.7781326,357.430691 43.6403847,329.295389 C10.7995608,296.454565 -4.04826779,250.31893 1.83363432,199.379946 C7.34868183,151.613031 30.7882452,104.905103 67.8356685,67.8576798 C104.880646,30.8127021 151.59102,7.3731388 199.357934,1.85809129 C250.292027,-4.0335936 296.432553,10.8240177 329.273377,43.662396 C362.114201,76.5007742 376.96203,122.638855 371.080128,173.577839 C365.56508,221.344754 342.125517,268.052681 305.080539,305.100105 C268.033116,342.145082 221.322742,365.584646 173.558273,371.102139 C166.262758,371.941013 159.062625,372.359227 151.989668,372.359227 L151.989668,372.359227 Z M220.593924,73.989043 C216.414228,73.989043 212.136703,74.2385041 207.773579,74.7423178 C176.380608,78.3668412 145.107476,94.3470277 119.716246,119.738257 C94.3250164,145.129487 78.34483,176.400173 74.7203065,207.793145 C71.4626376,236.016492 78.8486436,260.740046 95.5209624,277.412365 C112.193281,294.084684 136.921727,301.478027 165.140183,298.210575 C196.533154,294.586052 227.806286,278.605865 253.197516,253.217081 C278.588746,227.825851 294.568932,196.55272 298.19101,165.159749 C301.451124,136.936401 294.062673,112.212847 277.3928,95.540528 C263.298246,81.4459742 243.448966,73.989043 220.593924,73.989043 L220.593924,73.989043 Z" id="XMLID_242_"></path>
                </g>
                <g id="XMLID_3_" transform="translate(854.000000, 777.000000)">
                    <path d="M151.78423,372.180691 C109.468774,372.180691 71.572694,357.252155 43.4349461,329.116853 C10.5941222,296.276029 -4.25370636,250.140394 1.62819574,199.20141 C7.14324325,151.434495 30.5828066,104.726567 67.6302299,67.6791439 C104.675208,30.6341662 151.385581,7.19460289 199.152496,1.67955539 C250.086589,-4.20968381 296.227115,10.6454818 329.067939,43.4838601 C361.908763,76.3222383 376.756591,122.460319 370.874689,173.399303 C365.359642,221.166218 341.920078,267.874145 304.875101,304.921569 C267.827677,341.966546 221.117304,365.40611 173.352835,370.923603 C166.057319,371.764923 158.857186,372.180691 151.78423,372.180691 L151.78423,372.180691 Z M220.388486,73.8129528 C216.208789,73.8129528 211.931264,74.0624139 207.56814,74.5662276 C176.175169,78.190751 144.902037,94.1709375 119.510808,119.562167 C94.1195778,144.953397 78.1393914,176.224083 74.5148679,207.617054 C71.2571991,235.840402 78.643205,260.563956 95.3155238,277.236275 C111.985397,293.908594 136.718734,301.297045 164.934744,298.034485 C196.327715,294.409962 227.600847,278.429775 252.992077,253.040991 C278.383307,227.649761 294.363493,196.376629 297.985571,164.983658 C301.245686,136.760311 293.857234,112.036757 277.187361,95.3644378 C263.092807,81.269884 243.243528,73.8129528 220.388486,73.8129528 L220.388486,73.8129528 Z" id="XMLID_239_"></path>
                </g>
            </g>
        </g>
    </g>
</svg>